<svg width="24" height="24" viewBox="0 0 24 24" fill="none" xmlns="http://www.w3.org/2000/svg">
<path d="M13.9771 3C14.0618 2.99985 14.1457 3.01639 14.2239 3.04867C14.3022 3.08095 14.3733 3.12834 14.4333 3.18814L20.8118 9.56669C20.9326 9.68752 21.0005 9.85137 21.0005 10.0222C21.0005 10.1931 20.9326 10.3569 20.8118 10.4777C20.1933 11.0963 19.4305 11.2354 18.8751 11.2354C18.647 11.2354 18.4434 11.2122 18.2823 11.1852L14.2439 15.2236C14.3502 15.652 14.4192 16.0887 14.45 16.529C14.5093 17.4336 14.4088 18.7028 13.5223 19.5894C13.4014 19.7102 13.2376 19.778 13.0667 19.778C12.8959 19.778 12.732 19.7102 12.6112 19.5894L8.96577 15.9452L4.86546 20.0456C4.61418 20.2968 3.29466 21.2079 3.04338 20.9566C2.79211 20.7053 3.70314 19.3845 3.95442 19.1345L8.05474 15.0342L4.41058 11.3888C4.2898 11.2679 4.22194 11.1041 4.22194 10.9332C4.22194 10.7624 4.2898 10.5986 4.41058 10.4777C5.29714 9.59118 6.56641 9.48938 7.471 9.54994C7.91126 9.58079 8.34801 9.64977 8.77635 9.75612L12.8148 5.71894C12.7811 5.52271 12.7639 5.324 12.7633 5.1249C12.7633 4.5708 12.9024 3.80795 13.5223 3.18814C13.643 3.06769 13.8066 3.00004 13.9771 3Z" fill="#686868"/>
</svg>
